<?xml version="1.0" standalone="no"?>
<!DOCTYPE svg PUBLIC "-//W3C//DTD SVG 20010904//EN"
 "http://www.w3.org/TR/2001/REC-SVG-20010904/DTD/svg10.dtd">
<svg version="1.0" xmlns="http://www.w3.org/2000/svg"
 width="815.000000pt" height="833.000000pt" viewBox="0 0 815.000000 833.000000"
 preserveAspectRatio="xMidYMid meet">

<g transform="translate(0.000000,833.000000) scale(0.100000,-0.100000)"
fill="#000000" stroke="none">
<path d="M1676 7477 c421 -444 662 -1359 999 -3782 102 -735 169 -1195 175
-1195 3 0 11 37 17 83 18 136 128 1017 197 1582 166 1342 267 1850 439 2190
123 245 313 367 547 352 274 -18 448 -195 574 -586 71 -219 121 -460 216
-1046 120 -740 181 -1051 256 -1312 l6 -23 61 33 c43 22 113 82 232 196 214
206 355 334 470 427 348 280 706 431 1070 453 l110 6 0 1045 0 1045 -23 75
c-82 261 -283 455 -540 521 -73 18 -138 19 -2480 19 l-2404 0 78 -83z m4754 8
c144 -30 264 -99 368 -210 77 -83 130 -174 163 -285 l23 -75 4 -989 c1 -544
-1 -993 -5 -997 -4 -4 -55 -13 -113 -19 -410 -44 -784 -226 -1187 -578 -47
-41 -184 -169 -305 -284 -120 -114 -223 -208 -228 -208 -21 0 -111 439 -200
975 -33 204 -76 464 -96 579 -120 717 -236 1046 -434 1229 -113 105 -229 148
-400 148 -360 0 -563 -216 -719 -768 -61 -218 -111 -467 -185 -938 -29 -185
-95 -695 -171 -1330 -83 -689 -92 -755 -98 -762 -3 -2 -10 33 -16 79 -315
2313 -487 3207 -738 3848 -85 216 -243 502 -312 564 -12 11 -21 23 -21 28 0 4
1035 8 2299 8 2006 0 2309 -2 2371 -15z"/>
<path d="M1120 4109 c0 -2639 0 -2687 20 -2763 61 -239 252 -441 495 -524 l80
-27 2338 -3 c2616 -3 2410 -8 2572 72 160 80 270 188 346 341 80 163 73 43 77
1507 l2 1306 -62 -5 c-173 -14 -339 -78 -520 -202 -131 -90 -240 -183 -513
-442 -316 -299 -427 -386 -594 -469 -119 -59 -202 -82 -325 -88 -129 -6 -191
6 -296 55 -97 46 -223 171 -293 290 -147 252 -263 683 -388 1450 -24 144 -45
261 -47 259 -7 -7 -100 -725 -162 -1251 -31 -257 -115 -933 -145 -1155 -72
-529 -164 -987 -256 -1260 -35 -107 -116 -281 -149 -322 l-21 -28 -434 0 -434
0 -40 68 c-172 289 -272 761 -481 2272 -212 1531 -327 2215 -475 2816 -90 364
-203 681 -273 764 l-21 25 -1 -2686z m113 2296 c191 -587 328 -1336 587 -3190
212 -1522 295 -1930 456 -2261 24 -50 44 -94 44 -98 0 -4 -129 -6 -287 -4
-286 4 -289 4 -371 33 -192 66 -335 193 -417 370 -70 150 -65 -59 -65 2746 0
1449 4 2529 9 2524 5 -6 25 -59 44 -120z m2806 -2085 c173 -1043 405 -1479
832 -1566 107 -21 232 -14 352 21 234 68 416 195 788 551 337 323 485 442 664
532 76 38 207 79 265 84 l45 3 0 -1250 0 -1250 -23 -80 c-37 -128 -85 -209
-182 -305 -91 -92 -168 -139 -295 -182 l-70 -23 -1522 -3 c-838 -1 -1523 0
-1523 2 0 3 16 34 34 68 126 229 226 617 325 1258 54 345 79 543 232 1803 29
240 56 431 60 425 3 -7 11 -47 18 -88z"/>
</g>
</svg>
